<svg width="150" height="150" viewBox="0 0 150 150" fill="none" xmlns="http://www.w3.org/2000/svg">
<rect width="150" height="150" fill="#1E1E1E"/>
<rect width="150" height="150" fill="#D9D9D9"/>
<path d="M84.9091 56C83.9091 52.9394 82.5909 50.197 80.9545 47.7727C79.3485 45.3182 77.4242 43.2273 75.1818 41.5C72.9697 39.7727 70.4545 38.4545 67.6364 37.5454C64.8182 36.6364 61.7273 36.1818 58.3636 36.1818C52.8485 36.1818 47.8333 37.6061 43.3182 40.4545C38.803 43.303 35.2121 47.5 32.5455 53.0455C29.8788 58.5909 28.5455 65.3939 28.5455 73.4545C28.5455 81.5151 29.8939 88.3182 32.5909 93.8636C35.2879 99.4091 38.9394 103.606 43.5455 106.455C48.1515 109.303 53.3333 110.727 59.0909 110.727C64.4242 110.727 69.1212 109.591 73.1818 107.318C77.2727 105.015 80.4545 101.773 82.7273 97.5909C85.0303 93.3788 86.1818 88.4242 86.1818 82.7273L89.6364 83.4545H61.6364V73.4545H97.0909V83.4545C97.0909 91.1212 95.4545 97.7879 92.1818 103.455C88.9394 109.121 84.4545 113.515 78.7273 116.636C73.0303 119.727 66.4849 121.273 59.0909 121.273C50.8485 121.273 43.6061 119.333 37.3636 115.455C31.1515 111.576 26.303 106.061 22.8182 98.9091C19.3636 91.7576 17.6364 83.2727 17.6364 73.4545C17.6364 66.0909 18.6212 59.4697 20.5909 53.5909C22.5909 47.6818 25.4091 42.6515 29.0455 38.5C32.6818 34.3485 36.9848 31.1667 41.9545 28.9545C46.9242 26.7424 52.3939 25.6364 58.3636 25.6364C63.2727 25.6364 67.8485 26.3788 72.0909 27.8636C76.3636 29.3182 80.1667 31.3939 83.5 34.0909C86.8636 36.7576 89.6667 39.9545 91.9091 43.6818C94.1515 47.3788 95.697 51.4848 96.5455 56H84.9091Z" fill="#5591D6"/>
<path d="M128 26.9091L127.091 93.8182H116.545L115.636 26.9091H128ZM121.818 120.727C119.576 120.727 117.652 119.924 116.045 118.318C114.439 116.712 113.636 114.788 113.636 112.545C113.636 110.303 114.439 108.379 116.045 106.773C117.652 105.167 119.576 104.364 121.818 104.364C124.061 104.364 125.985 105.167 127.591 106.773C129.197 108.379 130 110.303 130 112.545C130 114.03 129.621 115.394 128.864 116.636C128.136 117.879 127.152 118.879 125.909 119.636C124.697 120.364 123.333 120.727 121.818 120.727Z" fill="#CC4141"/>
</svg>
