<?xml version="1.0" encoding="UTF-8" standalone="no"?>
<svg
   width="150"
   height="150"
   viewBox="0 0 150 150"
   fill="none"
   version="1.1"
   id="svg3"
   sodipodi:docname="Untitled.svg"
   inkscape:version="1.4.2 (ebf0e940, 2025-05-08)"
   xmlns:inkscape="http://www.inkscape.org/namespaces/inkscape"
   xmlns:sodipodi="http://sodipodi.sourceforge.net/DTD/sodipodi-0.dtd"
   xmlns="http://www.w3.org/2000/svg"
   xmlns:svg="http://www.w3.org/2000/svg">
  <defs
     id="defs3" />
  <sodipodi:namedview
     id="namedview3"
     pagecolor="#ffffff"
     bordercolor="#000000"
     borderopacity="0.25"
     inkscape:showpageshadow="2"
     inkscape:pageopacity="0.0"
     inkscape:pagecheckerboard="0"
     inkscape:deskcolor="#d1d1d1"
     inkscape:zoom="2.6460305"
     inkscape:cx="110.92087"
     inkscape:cy="80.120014"
     inkscape:window-width="1664"
     inkscape:window-height="935"
     inkscape:window-x="9"
     inkscape:window-y="31"
     inkscape:window-maximized="0"
     inkscape:current-layer="svg3" />
  <path
     d="M 76.8182,59 C 76.1818,56.7879 75.2879,54.8333 74.1364,53.1364 72.9849,51.4091 71.5758,49.9545 69.9091,48.7727 68.2727,47.5606 66.3939,46.6364 64.2727,46 c -2.0909,-0.6364 -4.4091,-0.9545 -6.9545,-0.9545 -4.7576,0 -8.9394,1.1818 -12.5455,3.5454 -3.5757,2.3636 -6.3636,5.803 -8.3636,10.3182 -2,4.4848 -3,9.9697 -3,16.4545 0,6.4849 0.9848,12 2.9545,16.5455 1.9697,4.5454 4.7576,8.0151 8.3637,10.4089 3.606,2.364 7.8636,3.546 12.7727,3.546 4.4545,0 8.2576,-0.788 11.4091,-2.364 3.1818,-1.6061 5.6061,-3.8636 7.2727,-6.7727 1.697,-2.9091 2.5455,-6.3485 2.5455,-10.3182 l 4,0.5909 h -24 V 72.1818 h 38.9545 v 11.7273 c 0,8.1818 -1.7273,15.2121 -5.1818,21.0909 -3.4545,5.848 -8.2121,10.364 -14.2727,13.545 -6.0606,3.152 -13,4.728 -20.8182,4.728 -8.7273,0 -16.3939,-1.925 -23,-5.773 -6.6061,-3.879 -11.7576,-9.379 -15.4546,-16.5 -3.6666,-7.1515 -5.5,-15.6364 -5.5,-25.4545 0,-7.5455 1.091,-14.2728 3.2728,-20.1819 C 18.9394,49.4242 22.0303,44.3939 26,40.2727 29.9697,36.1515 34.5909,33.0151 39.8636,30.8636 45.1364,28.7121 50.8485,27.6364 57,27.6364 c 5.2727,0 10.1818,0.7727 14.7273,2.3181 4.5454,1.5152 8.5757,3.6667 12.0909,6.4546 3.5454,2.7879 6.4394,6.106 8.6818,9.9545 2.2424,3.8182 3.6818,8.0303 4.3182,12.6364 z"
     fill="#5384ed"
     id="path2" />
  <path
     d="m 137.409,28.9091 -12.545,65.1818 h -16.546 l 8.955,-65.1818 z m -24.5,94.2729 c -3.061,0 -5.576,-1.061 -7.545,-3.182 -1.94,-2.121 -2.819,-4.697 -2.637,-7.727 0.212,-3 1.47,-5.531 3.773,-7.591 2.333,-2.091 5.015,-3.1365 8.045,-3.1365 2.91,0 5.364,1.0455 7.364,3.1365 2,2.091 2.879,4.621 2.636,7.591 -0.151,2 -0.803,3.833 -1.954,5.5 -1.121,1.636 -2.546,2.954 -4.273,3.954 -1.727,0.97 -3.53,1.455 -5.409,1.455 z"
     fill="#4f14c2"
     id="path3" />
</svg>
